<svg width="80" height="80" viewBox="0 0 80 80" fill="none" xmlns="http://www.w3.org/2000/svg">
<g clip-path="url(#clip0)">
<path d="M22.7796 54.6268L33.3127 44.0936L29.2344 40.0153L18.7013 50.5485L22.7796 54.6268Z" fill="#66C05D"/>
<path d="M44.0906 33.2935L54.6238 22.7603L50.5455 18.682L40.0123 29.2152L44.0906 33.2935Z" fill="#66C05D"/>
<path d="M29.4827 61.294L40.0158 50.7609L35.9375 46.6826L25.4044 57.2157L29.4827 61.294Z" fill="#66C05D"/>
<path d="M50.7645 39.9894L61.2977 29.4563L57.2194 25.378L46.6862 35.9111L50.7645 39.9894Z" fill="#66C05D"/>
<path d="M57.2425 54.6271L61.3208 50.5488L50.7876 40.0156L46.7093 44.0939L57.2425 54.6271Z" fill="#66C05D"/>
<path d="M50.546 61.301L54.6243 57.2227L44.0911 46.6896L40.0128 50.7679L50.546 61.301Z" fill="#66C05D"/>
<path d="M29.2408 40.0191L33.3191 35.9408L22.7859 25.4077L18.7077 29.486L29.2408 40.0191Z" fill="#66C05D"/>
<path d="M35.908 33.3159L39.9863 29.2376L29.4532 18.7045L25.3749 22.7828L35.908 33.3159Z" fill="#66C05D"/>
<path d="M25.3942 14.6058L29.4606 18.6722L40 8.13276L50.5394 18.6722L54.6058 14.6058L40 -2.28882e-05L25.3942 14.6058Z" fill="#EFEFEF"/>
<path d="M61.3278 50.5394L65.3942 54.6058L80 40L65.3942 25.3942L61.3278 29.4606L71.8672 40L61.3278 50.5394Z" fill="#EFEFEF"/>
<path d="M14.6058 54.6058L18.6722 50.5394L8.13276 40L18.6722 29.4606L14.6058 25.3942L-2.28882e-05 40L14.6058 54.6058Z" fill="#EFEFEF"/>
<path d="M29.4606 61.3278L25.3942 65.3942L40 80L54.6058 65.3942L50.5394 61.3278L40 71.8672L29.4606 61.3278Z" fill="#EFEFEF"/>
</g>
<defs>
<clipPath id="clip0">
<rect width="80" height="80" fill="white" transform="translate(80 80) rotate(180)"/>
</clipPath>
</defs>
</svg>
